<?xml version="1.0" encoding="UTF-8" standalone="no"?>
<svg width="50px" height="50px" viewBox="0 0 50 50" version="1.1" xmlns="http://www.w3.org/2000/svg" xmlns:xlink="http://www.w3.org/1999/xlink">
    <!-- Generator: Sketch 39.1 (31720) - http://www.bohemiancoding.com/sketch -->
    <title>color-logomark</title>
    <desc>Created with Sketch.</desc>
    <defs>
        <radialGradient cx="50%" cy="0%" fx="50%" fy="0%" r="100%" id="radialGradient-1">
            <stop stop-color="#20C6B7" offset="0%"></stop>
            <stop stop-color="#4D9ABF" offset="100%"></stop>
        </radialGradient>
    </defs>
    <g id="About" stroke="none" stroke-width="1" fill="none" fill-rule="evenodd">
        <g id="about-v3" transform="translate(-272.000000, -1563.000000)" fill="url(#radialGradient-1)">
            <g id="location" transform="translate(-1161.000000, 912.000000)">
                <g id="pin" transform="translate(1410.000000, 627.000000)">
                    <path d="M57.9251258,41.6680672 C58.1779011,41.7941176 58.3885472,41.9621849 58.5570641,42.1512605 C58.5781287,42.1722689 58.5781287,42.1722689 58.5991934,42.1722689 L58.620258,42.1722689 L63.4651186,40.092437 C63.4861832,40.0714286 63.5072478,40.0504202 63.5072478,40.0294118 C63.5072478,40.0084034 63.5072478,39.987395 63.4861832,39.9663866 L58.9572917,35.4495798 C58.9362271,35.4285714 58.9151625,35.4285714 58.9151625,35.4285714 L58.8940979,35.4285714 C58.8730333,35.4285714 58.8519687,35.4495798 58.8519687,35.4915966 L57.861932,41.605042 C57.8829966,41.6260504 57.9040612,41.6680672 57.9251258,41.6680672 Z M47.8773061,37.5714286 C48.1090169,37.9285714 48.2564691,38.3487395 48.2985984,38.7689076 C48.2985984,38.789916 48.319663,38.8109244 48.3407276,38.8319328 L55.5448247,41.9201681 L55.5658893,41.9201681 C55.5869539,41.9201681 55.6080185,41.9201681 55.6080185,41.8991597 C55.8186646,41.7310924 56.07144,41.605042 56.3452799,41.5210084 C56.3663445,41.5210084 56.3874092,41.5 56.3874092,41.4579832 L57.5670274,34.0840336 C57.5670274,34.0630252 57.5670274,34.0420168 57.5459628,34.0210084 L53.0381359,29.5042017 C53.0170713,29.4831933 53.0170713,29.4831933 52.9960067,29.4831933 C52.9749421,29.4831933 52.9538775,29.5042017 52.9538775,29.5252101 L47.8773061,37.4663866 C47.8562415,37.5084034 47.8562415,37.5504202 47.8773061,37.5714286 Z M72.4807723,48.9369748 L64.7500599,41.2058824 C64.7289953,41.1848739 64.7079307,41.1848739 64.7079307,41.1848739 L64.6868661,41.1848739 L59.4417778,43.4327731 C59.4207132,43.4537815 59.3996486,43.4747899 59.3996486,43.4957983 C59.3996486,43.5168067 59.4207132,43.5588235 59.4417778,43.5588235 L72.3754492,49.0840336 L72.3965139,49.0840336 C72.4175785,49.0840336 72.4386431,49.0840336 72.4386431,49.0630252 L72.4807723,49.0210084 C72.5229015,49.0210084 72.5229015,48.9579832 72.4807723,48.9369748 Z M71.195831,50.197479 L58.7887749,44.9033613 L58.7677102,44.9033613 C58.7466456,44.9033613 58.725581,44.9033613 58.7045164,44.9243697 C58.3674826,45.3865546 57.861932,45.6806723 57.2721228,45.7647059 C57.2510582,45.7647059 57.208929,45.7857143 57.208929,45.8277311 L55.8818585,54.0420168 C55.8818585,54.0630252 55.8818585,54.0840336 55.9029231,54.105042 C56.3663445,54.4621849 56.6401845,54.987395 56.7033783,55.5756303 C56.7033783,55.6176471 56.7244429,55.6386555 56.7665722,55.6386555 L64.2655738,57.2142857 L64.2866384,57.2142857 C64.3077031,57.2142857 64.3287677,57.2142857 64.3287677,57.1932773 L71.195831,50.3235294 C71.2168956,50.302521 71.2168956,50.2815126 71.2168956,50.2605042 C71.2168956,50.2394958 71.2168956,50.2184874 71.195831,50.197479 Z M54.7654341,43.1806723 L47.9826292,40.2815126 L47.9615646,40.2815126 C47.9405,40.2815126 47.9194353,40.302521 47.8983707,40.3235294 C47.4349493,41.0378151 46.6555587,41.4579832 45.8129742,41.4579832 C45.6865865,41.4579832 45.5601989,41.4369748 45.4127466,41.4159664 L45.391682,41.4159664 C45.3706174,41.4159664 45.3495528,41.4369748 45.3284881,41.4579832 L39.7463661,50.1764706 C39.7253015,50.197479 39.7253015,50.2394958 39.7463661,50.2605042 C39.7674307,50.2815126 39.7884953,50.2815126 39.8095599,50.2815126 L39.8306246,50.2815126 L54.7233048,43.8739496 C54.7443695,43.8529412 54.7654341,43.8319328 54.7654341,43.8109244 L54.7654341,43.7268908 L54.7654341,43.6218487 C54.7654341,43.4957983 54.7864987,43.3697479 54.8075633,43.2647059 C54.8075633,43.2226891 54.7864987,43.2016807 54.7654341,43.1806723 Z M62.9385033,58.4327731 L56.3452799,57.0672269 L56.3242153,57.0672269 C56.3031507,57.0672269 56.2820861,57.0882353 56.2610215,57.0882353 C56.0082461,57.4033613 55.692277,57.6554622 55.313114,57.802521 C55.2920494,57.802521 55.2709847,57.8445378 55.2709847,57.8655462 L53.6911389,67.6554622 C53.6911389,67.697479 53.7122035,67.7184874 53.7332681,67.7394958 L53.7753973,67.7394958 C53.7964619,67.7394958 53.8175266,67.7394958 53.8175266,67.7184874 L62.9595679,58.5798319 C62.9806325,58.5588235 62.9806325,58.5378151 62.9806325,58.5168067 C62.9806325,58.4537815 62.9595679,58.4327731 62.9385033,58.4327731 Z M53.7332681,57.7605042 C53.1013298,57.5084034 52.6379083,56.9411765 52.4693914,56.289916 C52.4693914,56.2689076 52.4483268,56.2478992 52.4061976,56.2268908 L40.1887229,53.6848739 C40.1887229,53.6848739 40.1887229,53.6848739 40.1676583,53.6848739 C40.1465937,53.6848739 40.1255291,53.7058824 40.1044645,53.7268908 C40.0412707,53.8319328 39.9991414,53.9159664 39.9359476,54 C39.914883,54.0210084 39.914883,54.0630252 39.9359476,54.0840336 L51.0580625,70.302521 C51.0791271,70.3235294 51.0791271,70.3235294 51.1001917,70.3235294 C51.1212563,70.3235294 51.1423209,70.3235294 51.1423209,70.302521 L51.8163885,69.6302521 C51.8163885,69.6092437 51.8374531,69.6092437 51.8374531,69.5882353 L53.7332681,57.8235294 C53.7753973,57.8235294 53.7753973,57.7815126 53.7332681,57.7605042 Z M40.4414983,52.1932773 C40.4414983,52.2352941 40.4625629,52.2563025 40.5046921,52.2563025 L52.6168437,54.7773109 L52.6379083,54.7773109 C52.6589729,54.7773109 52.6800375,54.7563025 52.7011021,54.7352941 C53.0592005,54.105042 53.6911389,53.6848739 54.4073357,53.6428571 C54.4494649,53.6428571 54.4705295,53.6218487 54.4705295,53.5798319 L55.7765354,45.4915966 C55.7765354,45.4705882 55.7765354,45.4285714 55.7344062,45.4285714 C55.6501478,45.3655462 55.5658893,45.302521 55.4605662,45.197479 C55.4395016,45.1764706 55.418437,45.1764706 55.418437,45.1764706 L55.3973724,45.1764706 L40.4204337,51.6260504 C40.3783044,51.6470588 40.3783044,51.6680672 40.3783044,51.710084 C40.3993691,51.8781513 40.4414983,52.0252101 40.4414983,52.1932773 Z M35.3649269,54.2310924 C35.3017331,54.1470588 35.2385393,54.0630252 35.1753454,53.9579832 C35.1542808,53.9369748 35.1332162,53.9159664 35.1121516,53.9159664 L35.091087,53.9159664 L29.8670633,56.1638655 C29.8459987,56.1638655 29.8249341,56.1848739 29.8249341,56.2058824 C29.8249341,56.2268908 29.8249341,56.2478992 29.8459987,56.2689076 L32.3948167,58.8109244 C32.4158813,58.8319328 32.4369459,58.8319328 32.4369459,58.8319328 C32.4580105,58.8319328 32.4790752,58.8109244 32.5001398,58.789916 L35.3859915,54.2731092 C35.3859915,54.2731092 35.3859915,54.2521008 35.3649269,54.2310924 Z M38.8195232,55.0504202 C38.7984586,55.0294118 38.777394,55.0084034 38.7563294,55.0084034 L38.7352648,55.0084034 C38.3561017,55.1764706 37.9769387,55.2605042 37.5767111,55.2605042 C37.260742,55.2605042 36.9658374,55.2184874 36.6498682,55.1134454 L36.6288036,55.1134454 C36.607739,55.1134454 36.5866744,55.1344538 36.5656098,55.1554622 L33.5323057,59.9033613 L33.5112411,59.9243697 C33.4901765,59.9453782 33.4901765,59.987395 33.5112411,60.0084034 L47.4560139,73.9369748 C47.4770785,73.9579832 47.4981431,73.9579832 47.4981431,73.9579832 C47.5192077,73.9579832 47.5402723,73.9579832 47.5402723,73.9369748 L49.9837673,71.4789916 C50.0048319,71.4579832 50.0048319,71.4159664 49.9837673,71.394958 L38.8195232,55.0504202 Z M36.8605143,49.5672269 C36.8815789,49.5882353 36.9026436,49.6092437 36.9237082,49.6092437 L36.9447728,49.6092437 C37.1554189,49.5672269 37.3871296,49.5252101 37.5977757,49.5252101 C37.8294865,49.5252101 38.0822618,49.5672269 38.3139725,49.6302521 L38.3350371,49.6302521 C38.3561017,49.6302521 38.3771664,49.6092437 38.398231,49.5882353 L44.0435468,40.7647059 C44.0646115,40.7436975 44.0646115,40.7016807 44.0435468,40.6806723 C43.60119,40.2184874 43.3484147,39.6092437 43.3484147,38.9579832 C43.3484147,38.7689076 43.3694793,38.5798319 43.4116085,38.3907563 C43.4116085,38.3487395 43.3905439,38.3277311 43.3694793,38.3067227 C42.6532825,37.9915966 36.3128344,35.302521 36.3128344,35.2815126 L36.2917698,35.2815126 C36.2707052,35.2815126 36.2496406,35.2815126 36.2496406,35.302521 L30.8781647,40.6806723 C30.8571001,40.7016807 30.8571001,40.7436975 30.8781647,40.7647059 L36.8605143,49.5672269 Z M37.4713881,34.1890756 C37.4713881,34.1890756 43.8750299,36.9201681 44.1488699,37.0462185 L44.1699345,37.0462185 C44.1909991,37.0462185 44.1909991,37.0462185 44.2120637,37.0252101 C44.6544206,36.6680672 45.2231651,36.4579832 45.7919096,36.4579832 C46.0657495,36.4579832 46.3395895,36.5 46.6134294,36.5840336 L46.634494,36.5840336 C46.6555587,36.5840336 46.6766233,36.5630252 46.6976879,36.5420168 L51.9006469,28.4117647 C51.9217115,28.3907563 51.9217115,28.3487395 51.9006469,28.3277311 L47.5824016,24.0210084 C47.561337,24 47.561337,24 47.5402723,24 C47.5192077,24 47.4981431,24 47.4981431,24.0210084 L37.4713881,34.0630252 C37.4503235,34.0840336 37.4503235,34.105042 37.4503235,34.1260504 C37.4292588,34.1680672 37.4503235,34.1680672 37.4713881,34.1890756 Z M34.9857639,51.1008403 C35.0068285,51.1008403 35.0278931,51.0798319 35.0489578,51.0588235 C35.1753454,50.8067227 35.3649269,50.5756303 35.5545084,50.3655462 C35.575573,50.3445378 35.575573,50.302521 35.5545084,50.2815126 C35.4913146,50.197479 29.7828049,41.8781513 29.7828049,41.8571429 C29.7617403,41.8361345 29.7617403,41.8361345 29.7196111,41.8151261 C29.6985464,41.8151261 29.6774818,41.8151261 29.6774818,41.8361345 L23.0210646,48.4747899 C23,48.4957983 23,48.5168067 23,48.5378151 C23,48.5588235 23.0210646,48.5798319 23.0631938,48.5798319 L34.9857639,51.1008403 C34.9646993,51.1008403 34.9646993,51.1008403 34.9857639,51.1008403 Z M34.438084,52.5504202 C34.438084,52.5084034 34.4170194,52.487395 34.3748902,52.487395 L24.032166,50.3235294 C24.032166,50.3235294 24.032166,50.3235294 24.0111013,50.3235294 C23.9900367,50.3235294 23.9689721,50.3445378 23.9479075,50.3655462 C23.9268429,50.3865546 23.9479075,50.4285714 23.9689721,50.4495798 L28.582122,55.0714286 C28.6031866,55.092437 28.6242513,55.092437 28.6242513,55.092437 L28.6453159,55.092437 L34.3748902,52.6344538 C34.4170194,52.592437 34.438084,52.5714286 34.438084,52.5504202 Z" id="color-logomark"></path>
                </g>
            </g>
        </g>
    </g>
</svg>